<?xml version="1.0" encoding="UTF-8" standalone="no"?>
<svg
   viewBox="0 0 876.25959 1322.5961"
   height="1322.5961"
   width="876.25958"
   xml:space="preserve"
   id="svg2"
   version="1.1"
   sodipodi:docname="men.svg"
   inkscape:version="1.2.1 (9c6d41e410, 2022-07-14)"
   xmlns:inkscape="http://www.inkscape.org/namespaces/inkscape"
   xmlns:sodipodi="http://sodipodi.sourceforge.net/DTD/sodipodi-0.dtd"
   xmlns="http://www.w3.org/2000/svg"
   xmlns:svg="http://www.w3.org/2000/svg"
   xmlns:rdf="http://www.w3.org/1999/02/22-rdf-syntax-ns#"
   xmlns:cc="http://creativecommons.org/ns#"
   xmlns:dc="http://purl.org/dc/elements/1.1/"><sodipodi:namedview
     id="namedview14900"
     pagecolor="#ffffff"
     bordercolor="#000000"
     borderopacity="0.25"
     inkscape:showpageshadow="2"
     inkscape:pageopacity="0.0"
     inkscape:pagecheckerboard="0"
     inkscape:deskcolor="#d1d1d1"
     showgrid="false"
     inkscape:zoom="0.25666445"
     inkscape:cx="-1096.7627"
     inkscape:cy="58.442063"
     inkscape:window-width="3840"
     inkscape:window-height="2066"
     inkscape:window-x="-11"
     inkscape:window-y="49"
     inkscape:window-maximized="1"
     inkscape:current-layer="g10" /><metadata
     id="metadata8"><rdf:RDF><cc:Work
         rdf:about=""><dc:format>image/svg+xml</dc:format><dc:type
           rdf:resource="http://purl.org/dc/dcmitype/StillImage" /></cc:Work></rdf:RDF></metadata><defs
     id="defs6" /><g
     transform="matrix(1.3333333,0,0,-1.3333333,-1001.217,2662.636)"
     id="g10"><g
       transform="scale(0.138268)"
       id="g18"><path
         id="path20"
         style="display:inline;fill:#15a1e5;fill-opacity:1;fill-rule:nonzero;stroke:none"
         d="m 7807.37,14442.8 c 483.03,0 920.45,-195.9 1237.04,-512.4 316.59,-316.6 512.44,-754 512.44,-1237 0,-483 -195.85,-920.5 -512.44,-1237 -316.59,-316.6 -754.01,-512.5 -1237.04,-512.5 -483.04,0 -920.46,195.9 -1237.05,512.5 -316.59,316.5 -512.44,754 -512.44,1237 0,483 195.85,920.4 512.44,1237 316.59,316.5 754.01,512.4 1237.05,512.4 z m 1004.61,-744.9 c -257.04,257.1 -612.3,416.1 -1004.61,416.1 -392.31,0 -747.58,-159 -1004.62,-416.1 -257.03,-257 -416.07,-612.2 -416.07,-1004.5 0,-392.3 159.04,-747.6 416.07,-1004.6 257.04,-257 612.31,-416.1 1004.62,-416.1 392.31,0 747.57,159.1 1004.61,416.1 257.04,257 416.08,612.3 416.08,1004.6 0,392.3 -159.04,747.5 -416.08,1004.5 z m 1371.22,-5430.64 -0.3,-19.43 c 2,-48.79 -17.8,-97.9 -57.8,-131.83 -318.71,-268.92 -685.12,-483.74 -1084.74,-629.73 -385.18,-140.68 -800.51,-217.56 -1232.99,-217.56 -432.44,0 -847.81,76.88 -1232.99,217.56 -399.68,146.04 -766.03,360.81 -1084.77,629.73 l 0.19,0.24 c -35.14,29.77 -57.6,74.04 -57.97,123.67 l -0.14,12.49 c -0.56,5.49 -0.84,11.13 -0.84,16.77 0,656.2 266.08,1250.33 696.09,1680.38 430.05,430.05 1024.23,696.05 1680.43,696.05 656.19,0 1250.37,-266 1680.43,-696.05 430,-430.05 696.1,-1024.18 696.1,-1680.38 h -0.7 z"
         sodipodi:nodetypes="scscscscscscscssscccccscccccscscccc" /></g></g></svg>
