<?xml version="1.0" encoding="UTF-8" standalone="no"?>
<svg
   viewBox="0 0 876.20509 1322.5961"
   height="1322.5961"
   width="876.20508"
   xml:space="preserve"
   id="svg2"
   version="1.1"
   sodipodi:docname="women.svg"
   inkscape:version="1.2.1 (9c6d41e410, 2022-07-14)"
   xmlns:inkscape="http://www.inkscape.org/namespaces/inkscape"
   xmlns:sodipodi="http://sodipodi.sourceforge.net/DTD/sodipodi-0.dtd"
   xmlns="http://www.w3.org/2000/svg"
   xmlns:svg="http://www.w3.org/2000/svg"
   xmlns:rdf="http://www.w3.org/1999/02/22-rdf-syntax-ns#"
   xmlns:cc="http://creativecommons.org/ns#"
   xmlns:dc="http://purl.org/dc/elements/1.1/"><sodipodi:namedview
     id="namedview15066"
     pagecolor="#ffffff"
     bordercolor="#000000"
     borderopacity="0.25"
     inkscape:showpageshadow="2"
     inkscape:pageopacity="0.0"
     inkscape:pagecheckerboard="0"
     inkscape:deskcolor="#d1d1d1"
     showgrid="false"
     inkscape:zoom="0.45834723"
     inkscape:cx="1882.852"
     inkscape:cy="1226.1446"
     inkscape:window-width="3840"
     inkscape:window-height="2066"
     inkscape:window-x="-11"
     inkscape:window-y="49"
     inkscape:window-maximized="1"
     inkscape:current-layer="svg2" /><metadata
     id="metadata8"><rdf:RDF><cc:Work
         rdf:about=""><dc:format>image/svg+xml</dc:format><dc:type
           rdf:resource="http://purl.org/dc/dcmitype/StillImage" /></cc:Work></rdf:RDF></metadata><defs
     id="defs6" /><g
     transform="matrix(0.13333333,0,0,-0.13333333,-2125.2527,2662.636)"
     id="g12"><g
       transform="scale(1.8411)"
       id="g14" /><g
       transform="scale(1.38268)"
       id="g18"><path
         id="path20"
         style="fill:#ff6500;fill-opacity:1;fill-rule:nonzero;stroke:none"
         d="m 11527.9,8260.69 c -0.5,664.68 265.6,1258.81 695.6,1688.86 430.1,430.05 1024.3,696.05 1680.5,696.05 656.2,0 1250.4,-266 1680.4,-696.05 438.2,-438.16 715.6,-1078.51 695.2,-1701.72 1.9,-48.79 -17.8,-97.9 -57.9,-131.83 -318.7,-268.92 -685.1,-483.69 -1084.7,-629.68 -385.2,-140.77 -800.6,-217.61 -1233,-217.61 -432.4,0 -847.8,76.84 -1233,217.61 -399.7,145.99 -766.1,360.76 -1084.7,629.68 l 0.1,0.24 c -35,29.63 -57.4,73.67 -57.9,123.06 z M 13904,14442.8 c 483,0 920.4,-195.9 1237,-512.4 316.6,-316.6 512.4,-754 512.4,-1237 0,-168.2 29.2,-329.5 82.6,-478.9 55.8,-155.8 137.4,-298.6 239.4,-422.7 57.5,-69.9 47.4,-173.1 -22.4,-230.6 l -7.2,-5.6 0.1,-0.2 c -263.4,-192.8 -581.8,-348.4 -936.8,-454.2 -339.7,-101.1 -713.5,-157.3 -1105.1,-157.3 -391.6,0 -765.5,56.2 -1105.2,157.3 -355,105.8 -673.3,261.4 -936.7,454.2 -73,53.6 -88.9,156.3 -35.3,229.3 3.4,4.6 7,9 10.8,13.2 99.6,122.7 179.5,263.3 234.3,416.7 53.5,149.4 82.6,310.6 82.6,478.8 0,483 195.9,920.4 512.5,1237 316.5,316.5 753.9,512.4 1237,512.4 z m 1004.6,-744.9 c -257.1,257.1 -612.3,416.1 -1004.6,416.1 -392.3,0 -747.6,-159 -1004.6,-416 -257,-257.1 -416.1,-612.3 -416.1,-1004.6 0,-206.6 -36,-405 -101.8,-589.3 -47.8,-133.4 -111.6,-259.6 -189.3,-376.4 204.5,-128.6 440.8,-234.5 700.3,-311.8 309.2,-92.1 651.2,-143.2 1011.5,-143.2 360.2,0 702.2,51.1 1011.4,143.2 259.5,77.3 495.9,183.2 700.4,311.8 -77.7,116.8 -141.6,243 -189.3,376.4 -65.9,184.2 -101.8,382.7 -101.8,589.3 0,392.3 -159.1,747.5 -416.1,1004.5"
         sodipodi:nodetypes="ccsccccscccccscsccccccscccccssscscscccscccsc" /></g></g></svg>
